<svg width="24" height="24" viewBox="0 0 24 24" fill="none" xmlns="http://www.w3.org/2000/svg">
<path d="M14 14.2361C13.4692 14.7111 12.7684 15 12 15C10.3431 15 9 13.6569 9 12C9 11.2316 9.28885 10.5308 9.76389 10" stroke="white" stroke-width="2" stroke-linecap="round" stroke-linejoin="round"/>
<path d="M19 14.7429C20.3333 13.3333 21 12 21 12C21 12 18 6 12 6C11.4772 6 10.9772 6.04555 10.5 6.12871M16.5 16.7574C15.2574 17.4853 13.7574 18 12 18C6 18 3 12 3 12C3 12 4.36141 9.27719 7.08422 7.5" stroke="white" stroke-width="2" stroke-linecap="round" stroke-linejoin="round"/>
<path d="M4 4L20 20" stroke="white" stroke-width="2" stroke-linecap="round" stroke-linejoin="round"/>
</svg>
