<svg width="25" height="24" viewBox="0 0 25 24" fill="none" xmlns="http://www.w3.org/2000/svg">
<path fill-rule="evenodd" clip-rule="evenodd" d="M6.4322 4.05065C6.66933 3.86937 6.9796 3.82025 7.26685 3.90136L8.6351 4.28772C9.08028 4.41342 9.55358 4.21738 9.77949 3.81369L10.4742 2.57225C10.62 2.31167 10.8743 2.12696 11.1703 2.08763C11.6053 2.02983 12.0492 2 12.5 2C12.9508 2 13.3947 2.02983 13.8297 2.08763C14.1257 2.12696 14.38 2.31167 14.5258 2.57225L15.2205 3.81369C15.4464 4.21738 15.9197 4.41342 16.3649 4.28772L17.7331 3.90136C18.0204 3.82025 18.3307 3.86937 18.5678 4.05065C19.2753 4.59151 19.9085 5.22469 20.4494 5.9322C20.6306 6.16933 20.6797 6.4796 20.5986 6.76685L20.2123 8.1351C20.0866 8.58028 20.2826 9.05358 20.6863 9.27949L21.9278 9.97422C22.1883 10.12 22.373 10.3743 22.4124 10.6703C22.4702 11.1053 22.5 11.5492 22.5 12C22.5 12.4508 22.4702 12.8947 22.4124 13.3297C22.373 13.6257 22.1883 13.88 21.9278 14.0258L20.6863 14.7205C20.2826 14.9464 20.0866 15.4197 20.2123 15.8649L20.5986 17.2331C20.6797 17.5204 20.6306 17.8307 20.4494 18.0678C19.9085 18.7753 19.2753 19.4085 18.5678 19.9494C18.3307 20.1306 18.0204 20.1797 17.7331 20.0986L16.3649 19.7123C15.9197 19.5866 15.4464 19.7826 15.2205 20.1863L14.5258 21.4278C14.38 21.6883 14.1257 21.873 13.8297 21.9124C13.3947 21.9702 12.9508 22 12.5 22C12.0492 22 11.6053 21.9702 11.1703 21.9124C10.8743 21.873 10.62 21.6883 10.4742 21.4278L9.77949 20.1863C9.55358 19.7826 9.08028 19.5866 8.6351 19.7123L7.26685 20.0986C6.9796 20.1797 6.66933 20.1306 6.4322 19.9494C5.72469 19.4085 5.09151 18.7753 4.55065 18.0678C4.36937 17.8307 4.32025 17.5204 4.40136 17.2331L4.78772 15.8649C4.91342 15.4197 4.71738 14.9464 4.31369 14.7205L3.07225 14.0258C2.81167 13.88 2.62696 13.6257 2.58763 13.3297C2.52983 12.8947 2.5 12.4508 2.5 12C2.5 11.5492 2.52983 11.1053 2.58763 10.6703C2.62696 10.3743 2.81167 10.12 3.07225 9.97422L4.31369 9.27949C4.71738 9.05358 4.91342 8.58028 4.78772 8.1351L4.40136 6.76685C4.32025 6.4796 4.36937 6.16933 4.55065 5.9322C5.09151 5.22469 5.72469 4.59151 6.4322 4.05065ZM10.7543 6.16716L11.6273 4.60712C12.0091 3.92491 12.9909 3.92491 13.3727 4.60712L14.2457 6.16716C14.4716 6.57085 14.9449 6.76689 15.3901 6.64119L17.1105 6.15539C17.8628 5.94295 18.5571 6.63715 18.3446 7.3895L17.8588 9.10993C17.7331 9.55512 17.9292 10.0284 18.3328 10.2543L19.8929 11.1273C20.5751 11.5091 20.5751 12.4909 19.8929 12.8727L18.3328 13.7457C17.9292 13.9716 17.7331 14.4449 17.8588 14.8901L18.3446 16.6105C18.5571 17.3628 17.8628 18.0571 17.1105 17.8446L15.3901 17.3588C14.9449 17.2331 14.4716 17.4292 14.2457 17.8328L13.3727 19.3929C12.9909 20.0751 12.0091 20.0751 11.6273 19.3929L10.7543 17.8328C10.5284 17.4292 10.0551 17.2331 9.60993 17.3588L7.8895 17.8446C7.13715 18.0571 6.44295 17.3628 6.65539 16.6105L7.14119 14.8901C7.26689 14.4449 7.07085 13.9716 6.66716 13.7457L5.10712 12.8727C4.42491 12.4909 4.42491 11.5091 5.10712 11.1273L6.66716 10.2543C7.07085 10.0284 7.26689 9.55512 7.14119 9.10993L6.65539 7.3895C6.44295 6.63715 7.13715 5.94295 7.8895 6.15539L9.60993 6.64119C10.0551 6.76689 10.5284 6.57085 10.7543 6.16716Z" fill="white"/>
<circle cx="12.5" cy="12" r="3" stroke="white" stroke-width="2" stroke-linecap="round" stroke-linejoin="round"/>
</svg>
