<svg width="25" height="24" viewBox="0 0 25 24" fill="none" xmlns="http://www.w3.org/2000/svg">
<path fill-rule="evenodd" clip-rule="evenodd" d="M9.5 7C9.5 5.34315 10.8431 4 12.5 4C14.1569 4 15.5 5.34315 15.5 7H16V7.0008H18.5C19.0523 7.0008 19.5 7.44851 19.5 8.0008V17.9989C19.5 18.5512 19.0523 18.9989 18.5 18.9989H6.5C5.94772 18.9989 5.5 18.5512 5.5 17.9989V8.0008C5.5 7.44851 5.94771 7.0008 6.5 7.0008H9V7H9.5ZM7.9157 5.0008C8.68707 3.23447 10.4494 2 12.5 2C14.5506 2 16.3129 3.23447 17.0843 5.0008H18.5C20.1569 5.0008 21.5 6.34394 21.5 8.0008V17.9989C21.5 19.6557 20.1569 20.9989 18.5 20.9989H6.5C4.84315 20.9989 3.5 19.6557 3.5 17.9989V8.0008C3.5 6.34394 4.84315 5.0008 6.5 5.0008H7.9157Z" fill="white"/>
<path d="M8.5 11H16.5" stroke="white" stroke-width="2" stroke-linecap="round"/>
<path d="M8.5 15H13.5" stroke="white" stroke-width="2" stroke-linecap="round"/>
</svg>
